<?xml version="1.0" encoding="UTF-8" standalone="no"?>
<!-- Created with Inkscape (http://www.inkscape.org/) -->

<svg
   version="1.1"
   id="svg2666"
   xml:space="preserve"
   width="880"
   height="880"
   viewBox="0 0 880 880"
   sodipodi:docname="1592397220spartan-helmet-silhouette-freesvg.org.svg"
   inkscape:version="1.2.1 (9c6d41e410, 2022-07-14)"
   xmlns:inkscape="http://www.inkscape.org/namespaces/inkscape"
   xmlns:sodipodi="http://sodipodi.sourceforge.net/DTD/sodipodi-0.dtd"
   xmlns="http://www.w3.org/2000/svg"
   xmlns:svg="http://www.w3.org/2000/svg"
   xmlns:rdf="http://www.w3.org/1999/02/22-rdf-syntax-ns#"
   xmlns:cc="http://creativecommons.org/ns#"
   xmlns:dc="http://purl.org/dc/elements/1.1/"><metadata
     id="metadata2672"><rdf:RDF><cc:Work
         rdf:about=""><dc:format>image/svg+xml</dc:format><dc:type
           rdf:resource="http://purl.org/dc/dcmitype/StillImage" /><dc:title /></cc:Work></rdf:RDF></metadata><defs
     id="defs2670"><clipPath
       clipPathUnits="userSpaceOnUse"
       id="clipPath2682"><path
         d="M 0,660 H 660 V 0 H 0 Z"
         id="path2680"
         inkscape:connector-curvature="0" /></clipPath></defs><sodipodi:namedview
     pagecolor="#ffffff"
     bordercolor="#666666"
     borderopacity="1"
     objecttolerance="10"
     gridtolerance="10"
     guidetolerance="10"
     inkscape:pageopacity="0"
     inkscape:pageshadow="2"
     inkscape:window-width="3440"
     inkscape:window-height="1369"
     id="namedview2668"
     showgrid="false"
     inkscape:zoom="0.64683626"
     inkscape:cx="283.68849"
     inkscape:cy="392.68052"
     inkscape:window-x="-8"
     inkscape:window-y="-8"
     inkscape:window-maximized="1"
     inkscape:current-layer="g2674"
     inkscape:showpageshadow="2"
     inkscape:pagecheckerboard="0"
     inkscape:deskcolor="#d1d1d1" /><g
     id="g2674"
     inkscape:groupmode="layer"
     inkscape:label="spartan-helmet-silhouette-freesvg.org"
     transform="matrix(1.3333333,0,0,-1.3333333,0,880)"><path
       d="m 410.482,439.356 -13.643,-0.534 c -33.318,4.603 -66.863,-6.665 -90.645,-30.447 -23.781,-23.781 -35.049,-57.33 -30.446,-90.645 l 2.188,-15.834 c -16.742,14.058 -26.41,34.799 -26.41,56.662 0,21.861 9.668,42.603 26.41,56.661 29.658,24.905 68.82,35.397 106.958,28.659 z m 29.284,-30.626 67.322,9.028 c -38.74,62.75 -144.034,88.304 -217.119,50.909 45.061,33.345 105.753,41.202 159.159,17.422 -7.419,24.809 -4.285,51.58 8.663,74.005 12.946,22.427 34.564,38.525 59.758,44.506 l -62.315,20.567 c -0.664,0.219 -1.328,0.43 -1.992,0.643 l -27.015,-57.13 11.288,61.611 c -39.091,9.761 -79.712,9.816 -118.396,0.523 l 6.347,-48.394 -18.087,45.27 c -18.872,-5.52 -37.188,-13.308 -54.529,-23.32 -14.801,-8.545 -28.549,-18.518 -41.101,-29.701 l 12.192,-19.729 -20.534,11.953 C 180.173,544.197 161.57,517.132 148.704,487.229 l 59.208,-34.577 -65.108,19.534 c -3.77,-10.61 -6.84,-21.526 -9.158,-32.687 -6.671,-32.12 -6.833,-65.242 -0.487,-97.41 l 42.692,5.985 -41.259,-13.187 c 5.551,-29.311 6.258,-58.954 2.406,-87.854 l 26.639,6.501 -28.361,-17.657 C 126.517,185.872 104.027,138.562 69.337,99.674 l 42.393,24.74 c 58.992,34.429 101.03,90.329 118.527,154.551 -29.09,47.475 -27.85,104.168 7.874,142.634 -1.837,-2.916 -3.59,-5.93 -5.238,-9.061 -19.851,-37.697 -19.851,-84.793 0,-122.49 13.167,-25.002 16.86,-55.024 10.237,-83.191 -6.623,-28.164 -22.997,-52.059 -45.372,-66.211 39.714,10.76 72.785,15.215 101.167,15.049 l -0.084,0.025 26.719,2.092 c 38.791,3.037 77.451,-7.322 109.524,-29.347 27.037,-18.566 59.624,-27.297 92.323,-24.737 -26.089,-6.842 -59.377,-3.97 -97.279,18.151 -18.26,10.657 -29.605,15.43 -45.353,15.724 65.513,-29.78 104.794,-88.574 187.25,-116.62 -28.173,108.442 -48.463,170.954 -56.48,282.831 l -53.268,18.759 c -19.442,6.848 -34.665,24.192 -40.675,46.348 l 95.009,-29.009 -69.085,38.006 77.393,-30.094 c 2.626,-34.1 10.15,-103.43 31.458,-129.518 l 14.391,11.576 c -16.015,29.692 -24.864,62.716 -25.841,96.437 l -2.29,79.005 z"
       style="fill:#ffffff;fill-opacity:1;fill-rule:evenodd;stroke:none"
       id="path2776"
       inkscape:connector-curvature="0" /></g></svg>
